<svg xmlns="http://www.w3.org/2000/svg" xmlns:xlink="http://www.w3.org/1999/xlink" width="500" viewBox="0 0 375 112.499997" height="150" preserveAspectRatio="xMidYMid meet"><defs><g></g></defs><g fill="#517d7b" fill-opacity="1"><g transform="translate(3.25758, 80.268247)"><g><path d="M 1.449219 -48.292969 L 1.449219 -35.734375 L 6.664062 -35.734375 L 6.664062 -18.542969 C 6.953125 -6.179688 7.4375 1.738281 21.925781 1.738281 C 24.144531 1.738281 30.714844 1.0625 33.609375 -0.0976562 L 33.609375 -12.460938 C 31.777344 -11.6875 28.78125 -10.816406 27.527344 -10.816406 C 23.757812 -10.816406 24.4375 -15.261719 24.4375 -18.542969 L 24.4375 -35.734375 L 33.609375 -35.734375 L 33.609375 -48.292969 L 24.4375 -48.292969 L 24.4375 -62.875 L 6.664062 -57.175781 L 6.664062 -48.292969 Z M 1.449219 -48.292969 "></path></g></g></g><g fill="#517d7b" fill-opacity="1"><g transform="translate(38.3156, 80.268247)"><g><path d="M 28.007812 1.253906 C 42.691406 1.253906 54.570312 -7.917969 54.375 -23.953125 C 54.085938 -40.082031 42.785156 -49.257812 27.527344 -49.449219 C 14.199219 -49.449219 1.160156 -40.46875 1.0625 -24.339844 C 0.871094 -7.242188 14.199219 1.253906 28.007812 1.253906 Z M 28.007812 -11.105469 C 23.953125 -11.105469 20.863281 -16.324219 20.863281 -24.242188 C 20.863281 -31.292969 23.757812 -36.894531 27.527344 -36.894531 C 32.066406 -36.796875 34.578125 -31.195312 34.578125 -23.953125 C 34.578125 -16.707031 32.164062 -11.105469 28.007812 -11.105469 Z M 28.007812 -11.105469 "></path></g></g></g><g fill="#517d7b" fill-opacity="1"><g transform="translate(93.751701, 80.268247)"><g><path d="M 2.414062 7.050781 L 2.414062 19.703125 L 31.292969 19.703125 L 31.292969 7.050781 L 26.078125 7.050781 L 26.078125 -2.703125 C 26.753906 -2.125 30.617188 1.0625 38.632812 1.0625 C 51.09375 1.0625 60.652344 -8.402344 60.652344 -23.757812 C 60.652344 -37.472656 52.925781 -49.0625 37.859375 -49.0625 C 32.066406 -49.0625 28.007812 -46.261719 26.175781 -44.910156 L 24.53125 -48.292969 L 2.414062 -48.292969 L 2.414062 -35.445312 L 6.472656 -35.445312 L 6.472656 7.050781 Z M 39.890625 -23.566406 C 39.890625 -16.226562 37.089844 -11.492188 33.03125 -11.492188 C 29.359375 -11.492188 26.078125 -16.515625 26.078125 -23.082031 C 25.691406 -30.714844 29.167969 -35.445312 32.933594 -35.445312 C 37.183594 -35.445312 39.890625 -29.359375 39.890625 -23.566406 Z M 39.890625 -23.566406 "></path></g></g></g><g fill="#517d7b" fill-opacity="1"><g transform="translate(155.368831, 80.268247)"><g><path d="M 6.855469 -44.136719 L 16.515625 -48.679688 L 16.515625 -12.84375 L 6.855469 -12.84375 L 6.855469 0 L 45.492188 0 L 45.492188 -12.84375 L 36.507812 -12.84375 L 36.507812 -67.511719 L 19.316406 -67.511719 C 12.265625 -59.109375 7.917969 -57.5625 2.414062 -54.859375 Z M 6.855469 -44.136719 "></path></g></g></g><g fill="#517d7b" fill-opacity="1"><g transform="translate(203.271797, 80.268247)"><g><path d="M 29.167969 1.160156 C 46.648438 1.160156 56.40625 -11.976562 56.40625 -33.417969 C 56.40625 -54.761719 47.617188 -68.765625 28.683594 -68.765625 C 12.652344 -68.765625 1.449219 -54.570312 1.449219 -34.09375 C 1.449219 -10.335938 13.039062 1.160156 29.167969 1.160156 Z M 29.167969 -13.8125 C 25.304688 -13.8125 20.570312 -21.632812 20.570312 -34.09375 C 20.570312 -45.878906 25.015625 -53.3125 28.589844 -53.21875 C 33.320312 -53.21875 36.992188 -44.910156 36.992188 -33.417969 C 36.992188 -21.632812 33.609375 -13.8125 29.167969 -13.8125 Z M 29.167969 -13.8125 "></path></g></g></g><g fill="#517d7b" fill-opacity="1"><g transform="translate(261.122352, 80.268247)"><g><path d="M 1.449219 -48.292969 L 1.449219 -35.542969 L 5.503906 -35.542969 L 5.503906 -22.214844 C 5.503906 -6.179688 10.335938 1.351562 24.917969 1.351562 C 33.128906 1.351562 36.507812 -3.671875 38.632812 -6.085938 L 41.242188 0 L 59.496094 0 L 59.496094 -12.84375 L 54.761719 -12.84375 L 54.761719 -48.292969 L 29.746094 -48.292969 L 29.746094 -35.542969 L 36.121094 -35.542969 L 36.121094 -20.1875 C 36.121094 -15.839844 33.417969 -12.84375 30.039062 -12.84375 C 26.078125 -12.84375 24.820312 -16.707031 24.820312 -25.015625 L 24.820312 -48.292969 Z M 1.449219 -48.292969 "></path></g></g></g><g fill="#517d7b" fill-opacity="1"><g transform="translate(322.063428, 80.268247)"><g><path d="M 1.449219 0 L 13.523438 0 L 14.390625 -5.890625 C 16.707031 -2.222656 22.214844 1.160156 29.167969 1.160156 C 38.535156 1.160156 47.132812 -4.25 47.132812 -13.328125 C 47.132812 -23.46875 38.921875 -26.269531 31.582031 -28.78125 C 25.402344 -30.90625 19.703125 -32.066406 19.703125 -34.769531 C 19.703125 -37.183594 21.441406 -38.246094 23.46875 -38.246094 C 28.300781 -38.246094 33.320312 -34.964844 33.320312 -30.90625 L 45.878906 -30.90625 L 45.878906 -48.292969 L 33.996094 -48.292969 L 33.226562 -41.917969 C 31.195312 -46.070312 25.402344 -49.449219 18.832031 -49.449219 C 11.976562 -49.449219 1.835938 -45.296875 1.835938 -35.445312 C 1.835938 -26.367188 8.113281 -22.3125 14.679688 -19.992188 C 21.632812 -17.578125 28.878906 -17.09375 28.878906 -14.199219 C 28.878906 -11.492188 26.558594 -10.914062 24.628906 -10.914062 C 21.730469 -10.914062 14.390625 -12.265625 14.390625 -17.386719 L 1.449219 -17.386719 Z M 1.449219 0 "></path></g></g></g></svg>